PathFileType	3	(X/Y/Z)	results
DataRate	CameraRate	NumFrames	NumMarkers	Units	OrigDataRate	OrigDataStartFrame	OrigNumFrames
30.0	30.0	4	85	mm	30.0	150	199
Frame#	Time	head			nose			neck			shoulder_r			elbow_r			wrist_r			shoulder_l			elbow_l			wrist_l			hip_r			knee_r			ankle_r			hip_l			knee_l			ankle_l			heel_r			heel_l			mtoe_r			ltoe_r			mtoe_l			ltoe_l			asis_l			asis_r			psi_r			psi_l			mhnd_r			lhnd_r			mhnd_l			lhnd_l			l_lat_knee			r_med_wrist			l_lat_ankle			r_med_ankle			r_lat_knee			xiphoid			l_med_ankle			r_med_knee			l_med_elbow			navel			r_lat_elbow			r_lat_wrist			l_med_wrist			l_lat_elbow			l_med_knee			r_med_elbow			r_lat_ankle			l_lat_wrist			chin			T10			r_eye			l_eye			l_ear			r_ear			spinal_cord_8			spinal_cord_12			spinal_cord_27			spinal_cord_33			up_arm_r_0			up_arm_r_5			up_arm_l_0			up_arm_l_5			front_torso_11			front_torso_7			front_torso_4			front_torso_1			front_torso_10			thigh_r_2			thigh_r_3			thigh_l_1			thigh_l_5			shank_l_0			shank_l_4			shank_r_1			shank_r_2			foot_r_1			foot_r_3			foot_r_5			foot_r_6			foot_r_7			foot_l_1			foot_l_7			foot_l_0			foot_l_4			foot_l_5			foot_l_6			
		X1	Y1	Z1	X2	Y2	Z2	X3	Y3	Z3	X4	Y4	Z4	X5	Y5	Z5	X6	Y6	Z6	X7	Y7	Z7	X8	Y8	Z8	X9	Y9	Z9	X10	Y10	Z10	X11	Y11	Z11	X12	Y12	Z12	X13	Y13	Z13	X14	Y14	Z14	X15	Y15	Z15	X16	Y16	Z16	X17	Y17	Z17	X18	Y18	Z18	X19	Y19	Z19	X20	Y20	Z20	X21	Y21	Z21	X22	Y22	Z22	X23	Y23	Z23	X24	Y24	Z24	X25	Y25	Z25	X26	Y26	Z26	X27	Y27	Z27	X28	Y28	Z28	X29	Y29	Z29	X30	Y30	Z30	X31	Y31	Z31	X32	Y32	Z32	X33	Y33	Z33	X34	Y34	Z34	X35	Y35	Z35	X36	Y36	Z36	X37	Y37	Z37	X38	Y38	Z38	X39	Y39	Z39	X40	Y40	Z40	X41	Y41	Z41	X42	Y42	Z42	X43	Y43	Z43	X44	Y44	Z44	X45	Y45	Z45	X46	Y46	Z46	X47	Y47	Z47	X48	Y48	Z48	X49	Y49	Z49	X50	Y50	Z50	X51	Y51	Z51	X52	Y52	Z52	X53	Y53	Z53	X54	Y54	Z54	X55	Y55	Z55	X56	Y56	Z56	X57	Y57	Z57	X58	Y58	Z58	X59	Y59	Z59	X60	Y60	Z60	X61	Y61	Z61	X62	Y62	Z62	X63	Y63	Z63	X64	Y64	Z64	X65	Y65	Z65	X66	Y66	Z66	X67	Y67	Z67	X68	Y68	Z68	X69	Y69	Z69	X70	Y70	Z70	X71	Y71	Z71	X72	Y72	Z72	X73	Y73	Z73	X74	Y74	Z74	X75	Y75	Z75	X76	Y76	Z76	X77	Y77	Z77	X78	Y78	Z78	X79	Y79	Z79	X80	Y80	Z80	X81	Y81	Z81	X82	Y82	Z82	X83	Y83	Z83	X84	Y84	Z84	X85	Y85	Z85	
150	5.0	1297.6639341765313	1593.722225591371	-330.14217722397836	1405.1749473483865	1393.2368140207052	-332.6460008577558	1228.3168814825638	1265.8019731680893	-379.0883028606527	1176.5264807208384	1202.03101217223	-176.50294740399474	1108.240647455405	951.2285875590032	-87.13870166587088	1254.5943626019312	773.4913735284629	-49.27142052621229	1253.446377471404	1221.9865656208415	-575.5113829921421	1234.6866694457099	984.2138481144997	-699.5183727689554	1177.2426304045991	765.8529482458989	-644.4790939534035	1120.5396226191401	777.4612646956185	-283.3894532115527	1293.3695634364972	456.77264219838634	-336.33197046285113	1163.5135993919498	99.68196470619995	-340.1510012912569	1140.6624775095818	760.1634526519233	-479.3386496117402	1168.2236336022418	389.3389969507447	-351.5446679729243	841.0073347322742	586.9773193337811	-369.57992569325114	1133.57487894629	43.04696292297437	-347.8499144328143	821.4300867076935	634.1398855094639	-382.42747381919037	1336.677338735715	35.35916877987729	-302.58238541628737	1268.8448867348548	34.87923379869209	-255.64508426408477	629.1104109863446	565.9139837133381	-326.5132276640721	658.0914581400841	586.238520884696	-410.91029076337077	1205.762448505453	811.6664586131978	-521.5339986628063	1171.8745563593418	834.574228659301	-234.86381995091935	1027.8841581991335	868.5674949982506	-350.91048921078203	1044.571806288627	858.6010575190969	-447.8481820928095	1272.5394320073317	704.5818873500783	-31.632118580579696	1323.1070077252548	721.7521003452033	-35.77293087535975	1167.3640291855702	691.0674875258915	-655.6220246092857	1150.9512401652883	691.4890866118152	-604.7674286076075	1174.9994731762524	393.79369692145485	-402.452737650269	1228.581303191012	766.3873801479729	-37.66793757470817	828.5649342350645	590.22135074508	-422.2759353272557	1175.79558187114	85.71355675138793	-372.7022468060116	1296.0504203143262	445.1713016724797	-297.59789934470825	1280.0337152246823	1077.920631394451	-366.94297853295797	825.4263184219168	585.8369385139351	-338.7183264333941	1290.475326572408	459.4016741088912	-375.4492037140873	1211.8318874692977	1006.0825017043052	-718.6450106716262	1243.122666389795	860.4289371447978	-371.07307618091767	1123.4905670634732	967.3138376895743	-51.433979575532334	1270.9368788154438	792.2686774022662	-69.96763874359065	1198.5268386530565	764.6700114652873	-668.7895281117864	1269.522451234168	982.9864596150337	-678.1018696310446	1184.2578017162948	428.0884298359644	-318.93599010543505	1096.5687607019772	948.2280732893545	-123.95594439528237	1156.0184054485867	82.93478929863718	-294.1290979643033	1170.8999112832169	782.003425693041	-618.6435252495793	1374.8625932729392	1315.3751903731834	-336.0778489185744	1093.543757245938	1134.9790960232651	-393.5326808756399	1406.8809924171624	1425.7347219081428	-296.2715462266073	1410.6264042802125	1427.5342004943777	-370.0101510101736	1304.7877615451469	1436.7918545080042	-431.3084018197857	1292.373408271726	1429.3573524162446	-248.65721711589157	1195.0207677753524	1335.132502852965	-385.06360601604945	1117.5667699930802	1232.7263382119474	-394.683841677927	1071.3677943332686	983.3494285244742	-380.4348420996539	1103.8802600826696	1122.4989605754356	-392.0127746621269	1189.8302420278753	1066.3438469045889	-129.57863720650292	1099.5693707424018	1067.601401082913	-107.85709555397744	1276.77912933377	1166.5242127384042	-590.2271262612974	1222.3649547311877	1069.584915015648	-698.9479556673033	1204.209461775577	897.7550974179892	-323.3100835481041	1288.9758014809267	985.7863973653863	-362.8441277531482	1306.0438562460863	1119.6528084403897	-436.12761805851846	1233.9567413566253	927.5601074641208	-450.85223832668055	1301.6739893933154	1160.5351747204934	-276.5281109595344	1211.4478904601026	606.2502643008809	-328.4903811914509	1232.2113454128173	564.8939988716619	-244.32887956577068	1157.421809232112	526.9948564115505	-352.1861622738474	1173.7023317058945	637.0609677147859	-534.976104194915	912.954166991961	521.4669466272828	-429.61921697952397	1040.9638909656999	468.7340420723829	-310.68926145106207	1230.7430539364207	305.61814556209634	-281.17795649614374	1234.1063534232358	267.723816810815	-376.8896840375113	1315.4319637965125	29.946244604992533	-285.1069790294912	1295.3247769629932	32.923634606335725	-267.0078014297149	1265.070323806676	44.71521232307417	-331.47303392076446	1245.4028548930887	52.90891488341923	-301.479732458695	1227.8768608087364	42.168675742439596	-275.4038677128514	638.1566313269432	579.586444524908	-377.1825508390661	734.7775134278631	583.7986912287627	-414.42270452461855	642.187869584905	580.4401826563507	-392.3597708265884	633.7474909451897	578.7649603959794	-358.6732169683631	687.679895946836	582.3508462076433	-376.46490163562044	722.628655274989	584.3841452862729	-354.36843747678495	
151	5.033333333333333	1440.3155517012924	1594.196357638459	-337.176157870956	1558.9270960107108	1400.1362370173022	-342.7670862128362	1381.390053914338	1259.4092521624443	-369.8418853779753	1353.285057722232	1190.5126301220419	-170.21507492490542	1323.4709826557864	942.6911637237678	-55.12197629117699	1518.0353100252496	816.6177148407867	-81.46711192296522	1399.2904209920089	1234.5582329827807	-580.4099209718161	1315.5993550782684	1005.8794165184211	-694.2841047702004	1219.7539549129915	794.4636103399936	-682.9863797602188	1254.2908144351763	789.5581995671532	-258.58831085439067	1349.4915292248384	441.2050496841513	-328.458105982657	1165.0025784859704	109.37792596262035	-344.12639766372524	1273.3292553345061	740.904879038894	-449.2991478039915	1462.7200138918552	406.08743097627337	-342.49525719125506	1125.2007134211324	580.6141124887195	-388.0786148076775	1127.0940269651344	57.302131769856096	-353.72824200305865	1092.463327315943	629.9013096857452	-402.87370953912665	1326.2512973058117	28.06304322007094	-300.43360901068394	1257.326177980339	37.696999119662564	-256.14933481338215	941.1673778717288	497.9436262572678	-336.0550015710877	950.1695932374603	533.7193351575683	-419.8100667094667	1344.4008430113602	777.4638419134637	-497.08287920787785	1311.8431196562253	846.813736538922	-217.8275600272664	1173.6719364635603	879.848366462233	-341.00646944768215	1189.6044276626476	853.6004022572461	-434.98478543259256	1559.162943575449	755.9958917831967	-77.5683810785025	1598.967474230009	787.6759455508947	-94.33190658456431	1200.8326557076118	724.7160925371444	-707.3150664792327	1177.5095830742118	720.58608409516	-659.4117822816568	1471.917662826949	426.5236114601806	-394.12366730060074	1500.0208477604997	801.7908091034204	-63.65057987997029	1117.2526619043479	583.6993908751236	-441.6464786407863	1174.4477221105703	95.1014210919307	-377.48082419995717	1350.947522075308	427.5184050073305	-290.32484497974525	1431.215700898227	1070.7937922597662	-361.89508914706715	1107.080376147272	577.9674289726051	-358.7331672902007	1346.7889965716054	445.872825190377	-367.3977499937843	1300.8528186948943	1032.325797423048	-715.4863675791869	1391.5292379658476	853.8210181240735	-367.365029186616	1344.7678356920449	961.977981607582	-24.453014684489403	1521.1631955944597	839.8313921344553	-103.81302751912649	1243.9154187021284	793.2539194083441	-704.438055325913	1347.7858599072167	995.771156617554	-671.1420052398976	1460.506910530244	452.9512972065301	-308.052390839659	1304.497638710257	936.5711306954994	-88.33797851482159	1155.6491955826807	92.00660666158528	-298.6795837355554	1212.1715580284845	807.5853591957633	-655.8041873849645	1533.01492792699	1320.6321619100559	-343.6099469833562	1244.5975925939615	1130.3732575970535	-381.0040934760299	1560.6357866179694	1433.2467485394347	-306.9494933330521	1560.4543101842582	1434.0961516529605	-380.799975046362	1451.2309805771554	1436.3532680376854	-436.56885257961414	1448.7245328647448	1431.098870981159	-253.43788225039037	1348.7482288896358	1329.1966565693124	-373.75177379030697	1269.7540348591401	1227.8383329748715	-381.82028113221673	1221.0606812148983	978.8597552878987	-368.98098247065843	1254.8291988551175	1117.7542041915503	-380.013683937744	1385.8277141320473	1059.2557212767972	-120.19020945804989	1302.3720770650061	1056.7249860060997	-79.58006638749997	1405.7530602752006	1173.9456032706291	-591.4274710426508	1328.9335763036781	1091.0104239125508	-698.1929687213659	1354.8232721107324	890.9892737659002	-317.7668836313928	1439.1752784130763	978.5160941552014	-359.2587805991877	1455.2193355809993	1113.0968219364881	-431.4572597961711	1380.3098463787644	922.06753151509	-445.92622562112217	1457.1109385181262	1151.9882776946629	-271.3125040826344	1303.637529333461	604.4925262089984	-312.69202418258186	1316.7073416705439	556.0804656068765	-230.7769919757596	1391.9184331124209	530.901489888787	-336.82067000431823	1362.474498825342	653.1008733889375	-510.00303787941124	1206.614946990508	521.1141481398505	-441.9687708410401	1327.0552951407988	475.8347935570325	-312.5257889430972	1264.6789103273725	299.4508904103712	-278.21564578702004	1260.61305723531	265.73797909315175	-375.4521367410453	1303.9490180237792	25.98890078167926	-283.57057829893137	1283.7490341590167	32.13459954198665	-266.3969042023008	1257.2490619097473	44.36197272515248	-332.4149491354121	1237.7102050868202	56.18551538710118	-303.57086584813914	1218.1843550338883	48.79273663852635	-277.7531988393106	938.2669677406512	518.0685951746685	-385.2761743044932	1022.4468287975674	556.8494877106712	-431.6438386119276	939.6580438693217	521.4794585505852	-400.5653428716277	936.9775957750314	514.2817896518093	-366.6560663756019	983.9969733574254	536.8366257905201	-389.4280761273824	1019.2665855856337	548.3286991474654	-371.0489979330487	
152	5.066666666666666	1588.5065012028376	1606.489085686596	-347.44690732818003	1712.2688293039068	1416.050077158974	-360.6816159652043	1533.0621772381612	1264.2392876364152	-363.24589344993507	1541.2786629272528	1204.983590831077	-173.85801716093692	1540.1699489400653	967.4364102018119	-35.579720377408655	1745.0657846364297	889.4582946263727	-115.46068290935649	1541.658235784065	1257.6340151743047	-579.8767691284047	1419.8865110761822	1051.210378459346	-701.6406989931427	1300.93986514617	851.6657894857644	-708.2946345716095	1403.1243730469776	805.6040197791341	-238.51548028496492	1384.7463670618301	447.7065816801726	-315.9517062526607	1175.2688949207934	132.09707265230514	-345.9639508009346	1438.3372537527553	742.8784215244515	-422.70501179072903	1724.6612211231854	475.81095737263456	-345.51963595294103	1350.622829864707	539.8622111666402	-395.01106949213914	1133.068781995864	84.81126581432038	-358.04762958451033	1282.8773116000002	564.2003695245986	-411.5046830476129	1326.0963479054867	27.002840218336168	-305.53662822590564	1258.2580527209977	42.29169960317905	-261.16548212102884	1314.1339010844938	368.82739735743894	-336.5349449600177	1290.4776856961716	392.0929117538005	-421.8282710677395	1509.8828188355737	780.4370133065851	-468.98241047059105	1453.789668567638	870.063908407242	-199.40213542634476	1322.426007014704	882.6753658036782	-333.34296538785486	1346.4515239437935	849.9830695286718	-423.5023358195086	1797.9311228210495	839.6613575251731	-125.8148534907105	1824.8018965995032	879.9507882470325	-148.70077806023755	1273.5724151656218	787.3907880615147	-738.8619974644904	1251.1991111432596	780.8334436524514	-690.7768248524334	1728.1196523270883	505.23479861608655	-393.22721317793275	1735.4669184595023	870.4915753033496	-95.21439621991648	1342.0671553916509	536.9840654648982	-448.49679855053563	1184.5412879788096	117.98078432411974	-379.43483710211024	1384.1642845245296	432.1411851792544	-278.37229640068375	1583.4975416692284	1075.6259387948546	-361.5674907942529	1334.1189449514013	533.908803504942	-365.20023980667247	1384.6476452765385	452.6164231615344	-355.020465027705	1407.906474484944	1080.848309988515	-720.2008467410734	1543.6580096245448	858.6681547357533	-366.49211493043066	1564.2462857867245	990.2704921931992	-9.791017365804928	1737.6852789460593	913.3291080067742	-136.04492031985774	1324.2340979832984	850.0642530505736	-730.660409021337	1451.5439152334488	1035.1548417070853	-681.3002642972439	1705.9963248997879	513.6390111701254	-305.6097487750442	1517.3532120957695	957.5739203981645	-65.29290268955289	1163.241771178988	114.35681711438373	-301.29524777337497	1295.6173219198174	862.6047220464003	-679.6493050062007	1688.7227852540589	1335.8106344489668	-360.16734859677797	1395.908179748526	1135.1170991966187	-365.0629466471077	1715.1524393687819	1449.1680241229203	-324.9463121545809	1710.4906223535363	1450.0709129877616	-398.6490958363883	1598.0828027495904	1449.1206560940198	-447.7263523803064	1606.7865655356716	1443.6470218011214	-264.791590502535	1500.1626419866247	1334.0136967486437	-363.70436423436223	1420.8500135055936	1232.6270572256194	-366.6959445504623	1373.5104222857929	983.4308272997006	-353.04220806104394	1406.1952143918252	1122.5042625296505	-365.0415913724902	1587.0997015319788	1080.2189034463777	-117.96443100138207	1509.958711229919	1077.8335190222747	-66.35038973494596	1538.7622360942767	1197.6169782465906	-594.9303886567621	1445.0125018603703	1133.726519747468	-701.2663902330634	1510.9837262949063	895.1764279977583	-313.68756596302177	1591.707881959093	983.3367330838716	-360.68920495684165	1601.8656679797582	1118.8015178921255	-432.30006948812184	1526.1806089005609	927.8342245002906	-443.0813973405435	1616.4523293165653	1155.7701665989537	-272.35315767346196	1392.8035685110422	615.5691213244718	-296.7549161142739	1391.7027386447728	563.6495714247924	-215.9603085000585	1616.355840054379	568.5069234858686	-329.32306432947433	1553.3364264955485	698.5577194963371	-487.1429335116764	1445.9203198864561	503.6060626988805	-446.7464751283583	1574.4827880041971	504.308472687317	-317.19810042487575	1287.6008992402099	311.8880783076875	-272.0447702909021	1283.7651172812234	281.12469184780264	-370.2635442304299	1303.4516125319572	26.6412246694897	-289.0096585438479	1283.9240914778147	34.12630431181095	-271.59146266727885	1260.2056471923242	54.04921408719118	-336.7884910330018	1241.8689595596327	66.28089028224132	-307.33180738006064	1221.1683428442354	59.69864480950561	-282.219610346894	1296.6994913941146	375.05785659292656	-386.4686343347222	1309.010659365811	465.27737112166295	-435.9564234159633	1294.9035740452514	377.4563237268662	-401.90721566600536	1298.7866263391613	372.6736244532356	-367.689121555034	1304.8258527812186	423.651335189403	-392.2433000527199	1313.1000373238112	460.37428195020306	-375.0163774197716	
153	5.1	1740.9711115899718	1626.9593344899827	-361.29473303655385	1865.5162009601374	1437.7531122971704	-382.4799527896939	1687.271550369622	1285.9031245282497	-363.79769198011644	1726.3488599371026	1248.3561308097935	-189.5382329324971	1745.8326033164592	1020.5495459667873	-36.975710407909766	1938.548048907665	963.8139995401501	-155.65887253166045	1683.9061067206665	1273.4495843675452	-561.2934851832592	1536.3281560074315	1111.533600441651	-717.0801597149988	1417.0364406430688	912.2675460664542	-708.527461632712	1557.8352441468683	812.377626518752	-229.59279184999096	1430.5727411793644	476.98775400752015	-300.3808747840581	1199.6759397896415	178.52339114108383	-345.0642000068169	1595.919767140757	771.7762264747474	-419.332947281346	1932.9803279994658	579.0948458235914	-354.9906135248865	1583.2885110504174	424.7165796450887	-373.42067950882256	1154.2493214733297	138.48979961607856	-360.0187750231066	1512.134001481446	401.50409805509213	-383.2598919490116	1331.5650338153962	34.7812610539716	-325.92276762486154	1264.4350663625476	47.51967485645858	-279.70715981685134	1677.9245542338147	277.45365133655076	-339.75111633363804	1639.3653862286985	291.3707752349556	-421.5762737749399	1667.1510959152415	815.6630462388358	-460.21152578240634	1606.8977687658646	872.8415893350101	-182.80731294106184	1476.5420326716137	898.3253636270924	-315.89963308084424	1502.0097715713607	876.5982331492596	-408.9267788642577	1992.9650561928659	919.5234419524332	-177.07904062517363	2011.1921283798245	962.4973913467	-203.3479531968206	1376.7205956213506	853.5154519885468	-735.6833243955795	1376.1389266356723	837.7389633286808	-684.6293197488952	1929.4042403169356	599.0718973024016	-402.6418874258437	1934.7227738121753	943.7721379612302	-134.55252624986312	1575.7058822811514	411.4230410858473	-425.4590506862434	1212.2245279189965	161.67973163284304	-376.1185261032449	1423.3558478532086	462.7474120566303	-262.7069079140202	1737.6423822628205	1097.2986092315357	-367.3550064273074	1573.8590804262728	414.34089838667785	-341.79888444462335	1437.7589409026177	477.6207906612792	-339.2950550480037	1519.3241100919877	1144.2596472295668	-719.5852805944653	1697.677592994096	880.317110114987	-365.36378567129094	1772.4084534563665	1045.2773645198126	-15.800685536289716	1925.2475360454541	987.0867887223238	-173.81023795533264	1428.8141954194139	915.4859829267112	-738.4664032600393	1572.5580921272883	1093.0213862259366	-712.791286252137	1910.598128854453	605.0499585520728	-314.05585337500526	1719.8149354803306	1008.5143483876284	-63.0329621444824	1179.9633219393054	164.58725691151997	-301.7992226875354	1424.5926186347	917.7518345181888	-678.8395622086979	1842.7134269680944	1357.3041473094654	-381.45703616995735	1551.1763700064635	1156.7959865172243	-346.578253728189	1869.9412512191293	1470.6016336908904	-346.65371758415944	1861.5074862221454	1472.0666266230496	-420.0115629200031	1746.748368014144	1470.5102174581132	-463.2888131190186	1764.8458001029196	1463.615924395975	-281.091681041559	1654.5411450559025	1355.678097799923	-360.4463556608546	1575.6070906586451	1254.2862654476305	-352.21199765401474	1530.6787259177702	1005.2089308894383	-330.5753186720391	1561.3869848735167	1144.181789328837	-347.81621976851136	1780.656066079696	1128.0307523900033	-131.5518686740499	1710.2622430744784	1128.3610975289928	-71.01235881242437	1677.828878726041	1222.841483805383	-596.4919290988902	1559.4635508621977	1190.7863620011487	-692.0977182185453	1672.2073106517466	917.2291399551133	-308.9940245416497	1745.9718969200844	1005.0171690146634	-366.8717450839988	1746.506732632474	1139.9353680169636	-440.2120340638088	1670.2163081461615	948.9059404948919	-439.5040116249041	1781.9866302545342	1178.1083382721515	-283.85837250823533	1492.4094257383158	632.5306846673957	-284.23849904593607	1466.8865857381477	588.3336371509542	-202.87618751983675	1810.5057907600662	639.8506131387347	-333.5151430570773	1714.0666311188402	750.1901784535836	-489.4524251635932	1680.880447428516	439.8825585568289	-431.02692170641404	1792.8600710644214	525.0828250519526	-314.7812273510881	1316.3582351954522	352.58185716402033	-264.4650529837912	1323.5342590492658	316.32359737392306	-360.59969815682183	1308.158528098987	33.39324551686726	-310.5518718854946	1289.04118508278	38.54533194967112	-291.87763174684443	1273.0749731787087	81.06578892699437	-347.97781228877005	1255.1367411353867	86.81793497924566	-316.37596306024517	1232.0864493976198	76.6654821314194	-294.74090633117197	1658.1077441368993	278.0157356714604	-389.1791316376111	1599.2940989056508	356.89413219926314	-421.7263377019288	1654.1571798226769	281.06538473989195	-404.0928984118968	1662.4653115954104	274.60046700480734	-370.9566636050874	1628.8100047773687	317.92435364446806	-386.0718248358624	1609.5404046041074	345.83674911911555	-362.336102810347	
